<svg width="40" height="40" viewBox="0 0 40 40" fill="none" xmlns="http://www.w3.org/2000/svg">
<path d="M36.4905 22.2234C36.3302 22.0628 36.1291 21.9488 35.9089 21.8937C35.6887 21.8387 35.4576 21.8446 35.2405 21.9109C32.8571 22.6315 30.3227 22.6919 27.9076 22.0857C25.4925 21.4796 23.2871 20.2295 21.5264 18.4688C19.7657 16.7081 18.5156 14.5027 17.9095 12.0876C17.3033 9.67249 17.3637 7.13817 18.0843 4.75468C18.1512 4.5375 18.1576 4.30619 18.1028 4.08564C18.0481 3.86509 17.9342 3.66364 17.7735 3.50295C17.6128 3.34226 17.4114 3.22842 17.1908 3.17366C16.9703 3.11891 16.739 3.12531 16.5218 3.19218C13.2265 4.20163 10.3336 6.22467 8.2546 8.97343C6.43649 11.3873 5.32749 14.2603 5.0522 17.2696C4.7769 20.279 5.34621 23.3055 6.69617 26.0092C8.04613 28.7128 10.1233 30.9865 12.6942 32.5747C15.2651 34.163 18.228 35.0028 21.2499 35C24.7754 35.0107 28.2071 33.8646 31.0187 31.7375C33.7674 29.6585 35.7905 26.7656 36.7999 23.4703C36.866 23.2539 36.8721 23.0237 36.8177 22.8041C36.7632 22.5845 36.6501 22.3838 36.4905 22.2234ZM29.5155 29.7406C26.8679 31.7348 23.5891 32.7054 20.2826 32.4739C16.9762 32.2424 13.8646 30.8243 11.5208 28.4806C9.1769 26.137 7.75853 23.0255 7.52674 19.719C7.29495 16.4126 8.26534 13.1337 10.2593 10.4859C11.5584 8.7704 13.2378 7.37976 15.1655 6.42343C15.0557 7.1941 15.0004 7.97155 14.9999 8.75C15.0045 13.0584 16.718 17.189 19.7644 20.2355C22.8109 23.2819 26.9415 24.9954 31.2499 25C32.0299 24.9998 32.8089 24.9444 33.5812 24.8344C32.6239 26.7624 31.2322 28.4419 29.5155 29.7406Z" fill="url(#paint0_linear_5_1339)"/>
<defs>
<linearGradient id="paint0_linear_5_1339" x1="20.9195" y1="3.13683" x2="20.9195" y2="35.0001" gradientUnits="userSpaceOnUse">
<stop stop-color="#3C00B5"/>
<stop offset="1" stop-color="#20019B"/>
</linearGradient>
</defs>
</svg>
