<svg width="40" height="40" viewBox="0 0 40 40" fill="none" xmlns="http://www.w3.org/2000/svg">
<path d="M18.125 5.625V3.125C18.125 2.62772 18.3225 2.15081 18.6742 1.79917C19.0258 1.44754 19.5027 1.25 20 1.25C20.4973 1.25 20.9742 1.44754 21.3258 1.79917C21.6775 2.15081 21.875 2.62772 21.875 3.125V5.625C21.875 6.12228 21.6775 6.59919 21.3258 6.95083C20.9742 7.30246 20.4973 7.5 20 7.5C19.5027 7.5 19.0258 7.30246 18.6742 6.95083C18.3225 6.59919 18.125 6.12228 18.125 5.625ZM30.625 20C30.625 22.1014 30.0019 24.1557 28.8344 25.9029C27.6669 27.6502 26.0075 29.012 24.066 29.8162C22.1245 30.6204 19.9882 30.8308 17.9272 30.4208C15.8661 30.0109 13.9729 28.9989 12.487 27.513C11.0011 26.0271 9.98912 24.1339 9.57916 22.0728C9.16919 20.0118 9.3796 17.8755 10.1838 15.934C10.988 13.9925 12.3498 12.3331 14.0971 11.1656C15.8443 9.99815 17.8986 9.375 20 9.375C22.817 9.3779 25.5179 10.4982 27.5098 12.4902C29.5018 14.4821 30.6221 17.183 30.625 20ZM26.875 20C26.875 18.6403 26.4718 17.311 25.7164 16.1805C24.9609 15.0499 23.8872 14.1687 22.6309 13.6483C21.3747 13.128 19.9924 12.9918 18.6588 13.2571C17.3251 13.5224 16.1001 14.1772 15.1386 15.1386C14.1772 16.1001 13.5224 17.3251 13.2571 18.6588C12.9918 19.9924 13.128 21.3747 13.6483 22.6309C14.1687 23.8872 15.0499 24.9609 16.1805 25.7164C17.311 26.4718 18.6403 26.875 20 26.875C21.8227 26.8729 23.5702 26.1479 24.8591 24.8591C26.1479 23.5702 26.8729 21.8227 26.875 20ZM8.04844 10.7016C8.22285 10.876 8.42991 11.0143 8.65779 11.1087C8.88567 11.2031 9.12991 11.2517 9.37656 11.2517C9.62322 11.2517 9.86746 11.2031 10.0953 11.1087C10.3232 11.0143 10.5303 10.876 10.7047 10.7016C10.8791 10.5272 11.0175 10.3201 11.1118 10.0922C11.2062 9.86433 11.2548 9.62009 11.2548 9.37344C11.2548 9.12678 11.2062 8.88254 11.1118 8.65466C11.0175 8.42678 10.8791 8.21972 10.7047 8.04531L8.82969 6.17031C8.47745 5.81807 7.99971 5.62019 7.50156 5.62019C7.00342 5.62019 6.52568 5.81807 6.17344 6.17031C5.8212 6.52255 5.62331 7.00029 5.62331 7.49844C5.62331 7.99658 5.8212 8.47432 6.17344 8.82656L8.04844 10.7016ZM8.04844 29.2953L6.17344 31.1703C5.99903 31.3447 5.86067 31.5518 5.76628 31.7797C5.67189 32.0075 5.62331 32.2518 5.62331 32.4984C5.62331 32.7451 5.67189 32.9893 5.76628 33.2172C5.86067 33.4451 5.99903 33.6522 6.17344 33.8266C6.52568 34.1788 7.00342 34.3767 7.50156 34.3767C7.74822 34.3767 7.99246 34.3281 8.22034 34.2337C8.44822 34.1393 8.65528 34.001 8.82969 33.8266L10.7047 31.9516C11.0569 31.5993 11.2548 31.1216 11.2548 30.6234C11.2548 30.1253 11.0569 29.6476 10.7047 29.2953C10.3524 28.9431 9.87471 28.7452 9.37656 28.7452C8.87842 28.7452 8.40068 28.9431 8.04844 29.2953ZM30.625 11.25C30.8713 11.2502 31.1152 11.2019 31.3428 11.1078C31.5705 11.0137 31.7773 10.8756 31.9516 10.7016L33.8266 8.82656C34.001 8.65215 34.1393 8.44509 34.2337 8.21721C34.3281 7.98933 34.3767 7.74509 34.3767 7.49844C34.3767 7.25178 34.3281 7.00754 34.2337 6.77966C34.1393 6.55178 34.001 6.34472 33.8266 6.17031C33.6522 5.9959 33.4451 5.85755 33.2172 5.76316C32.9893 5.66877 32.7451 5.62019 32.4984 5.62019C32.2518 5.62019 32.0075 5.66877 31.7797 5.76316C31.5518 5.85755 31.3447 5.9959 31.1703 6.17031L29.2953 8.04531C29.0315 8.30756 28.8517 8.64235 28.7787 9.00708C28.7057 9.37182 28.7429 9.75002 28.8854 10.0936C29.028 10.4372 29.2695 10.7306 29.5792 10.9365C29.889 11.1424 30.253 11.2515 30.625 11.25ZM31.9516 29.2984C31.5993 28.9462 31.1216 28.7483 30.6234 28.7483C30.1253 28.7483 29.6476 28.9462 29.2953 29.2984C28.9431 29.6507 28.7452 30.1284 28.7452 30.6266C28.7452 31.1247 28.9431 31.6024 29.2953 31.9547L31.1703 33.8297C31.5226 34.1819 32.0003 34.3798 32.4984 34.3798C32.9966 34.3798 33.4743 34.1819 33.8266 33.8297C34.1788 33.4774 34.3767 32.9997 34.3767 32.5016C34.3767 32.0034 34.1788 31.5257 33.8266 31.1734L31.9516 29.2984ZM7.5 20C7.5 19.5027 7.30246 19.0258 6.95083 18.6742C6.59919 18.3225 6.12228 18.125 5.625 18.125H3.125C2.62772 18.125 2.15081 18.3225 1.79917 18.6742C1.44754 19.0258 1.25 19.5027 1.25 20C1.25 20.4973 1.44754 20.9742 1.79917 21.3258C2.15081 21.6775 2.62772 21.875 3.125 21.875H5.625C6.12228 21.875 6.59919 21.6775 6.95083 21.3258C7.30246 20.9742 7.5 20.4973 7.5 20ZM20 32.5C19.5027 32.5 19.0258 32.6975 18.6742 33.0492C18.3225 33.4008 18.125 33.8777 18.125 34.375V36.875C18.125 37.3723 18.3225 37.8492 18.6742 38.2008C19.0258 38.5525 19.5027 38.75 20 38.75C20.4973 38.75 20.9742 38.5525 21.3258 38.2008C21.6775 37.8492 21.875 37.3723 21.875 36.875V34.375C21.875 33.8777 21.6775 33.4008 21.3258 33.0492C20.9742 32.6975 20.4973 32.5 20 32.5ZM36.875 18.125H34.375C33.8777 18.125 33.4008 18.3225 33.0492 18.6742C32.6975 19.0258 32.5 19.5027 32.5 20C32.5 20.4973 32.6975 20.9742 33.0492 21.3258C33.4008 21.6775 33.8777 21.875 34.375 21.875H36.875C37.3723 21.875 37.8492 21.6775 38.2008 21.3258C38.5525 20.9742 38.75 20.4973 38.75 20C38.75 19.5027 38.5525 19.0258 38.2008 18.6742C37.8492 18.3225 37.3723 18.125 36.875 18.125Z" fill="url(#paint0_linear_5_1368)"/>
<defs>
<linearGradient id="paint0_linear_5_1368" x1="20" y1="1.25" x2="20" y2="38.75" gradientUnits="userSpaceOnUse">
<stop stop-color="#3C00B5"/>
<stop offset="1" stop-color="#20019B"/>
</linearGradient>
</defs>
</svg>
