<svg width="26" height="26" viewBox="0 0 26 26" fill="none" xmlns="http://www.w3.org/2000/svg">
<path d="M12.1037 23.7638C11.1968 23.036 2.77549 14.8465 2.68136 14.757C2.30942 14.385 2.07524 13.9993 2.01095 13.6458C1.94437 13.2784 2.05687 12.957 2.35534 12.6585C2.63314 12.3807 2.97294 12.2338 3.33798 12.2338C3.78339 12.2338 4.24027 12.445 4.62139 12.8284L8.43947 16.4973C8.50605 16.5615 8.59329 16.5937 8.67824 16.5937C8.76778 16.5937 8.85503 16.5593 8.92161 16.4927C9.05477 16.3595 9.05477 16.1437 8.9239 16.0105L2.82829 9.71518C2.21758 9.10447 1.9306 8.17004 2.6561 7.44454C2.9339 7.16673 3.2737 7.01979 3.63875 7.01979C4.08415 7.01979 4.54103 7.23102 4.92215 7.61443L11.1578 13.694C11.2244 13.7583 11.3116 13.7927 11.3989 13.7927C11.4861 13.7927 11.5757 13.7583 11.6422 13.6917C11.7754 13.5585 11.7777 13.3427 11.6445 13.2072L4.15532 5.52976C3.80864 5.18308 3.59972 4.76752 3.56298 4.36344C3.52854 3.95247 3.67318 3.57135 3.98313 3.26141C4.26093 2.9836 4.60073 2.83667 4.96577 2.83667C5.41118 2.83667 5.86806 3.04789 6.24918 3.42901L13.8876 10.8769C13.9542 10.9412 14.0415 10.9756 14.1287 10.9756C14.2159 10.9756 14.3055 10.9412 14.3721 10.8746C14.5052 10.7414 14.5075 10.5256 14.3744 10.3902L8.82748 4.68946C8.4785 4.34048 8.26957 3.92722 8.23513 3.52314C8.2007 3.11218 8.34534 2.73106 8.65528 2.42111C8.93309 2.14331 9.27288 1.99637 9.63793 1.99637C10.0833 1.99637 10.5402 2.20759 10.9213 2.59101C12.9555 4.58844 18.2659 9.81161 18.445 10.0045C19.1269 10.4751 19.2646 9.76339 19.2991 9.30192C19.3381 8.76468 18.7228 6.88893 19.081 5.20144C19.6825 2.95835 21.4159 3.32569 21.4549 3.34406C22.4054 3.78946 22.224 4.45528 21.8865 5.79378L21.8521 6.05781C21.4985 7.80729 23.9276 12.9914 24.1067 13.3794C25.0595 15.4641 26.1569 19.6909 22.5225 23.3253C18.5391 27.3086 13.6075 25.2676 12.1037 23.7638Z" fill="url(#paint0_radial_5_1365)"/>
<path d="M17.2143 26C14.7715 26 12.6937 24.8314 11.874 24.0209C11.1371 23.4194 6.48557 18.9286 2.69734 15.2529C2.54351 15.1037 2.45397 15.0187 2.44479 15.0072C2.01546 14.5779 1.74913 14.1302 1.67337 13.7078C1.58612 13.2279 1.73536 12.794 2.11188 12.4152C2.45627 12.0708 2.87872 11.8894 3.33789 11.8894C3.87743 11.8894 4.41926 12.1374 4.86467 12.5851L8.67815 16.2493L2.58025 9.95397C1.8777 9.25142 1.52413 8.0874 2.41265 7.20119C2.75703 6.8568 3.17948 6.67543 3.63866 6.67543C4.17819 6.67543 4.72003 6.92338 5.16543 7.37108L11.3965 13.446L3.90957 5.77084C3.51009 5.37136 3.26443 4.88233 3.2208 4.3956C3.17718 3.87673 3.35626 3.40147 3.73968 3.01806C4.08406 2.67368 4.50651 2.4923 4.96569 2.4923C5.50293 2.4923 6.04476 2.73796 6.49246 3.18566L14.1286 10.6313L8.58173 4.93054C8.17994 4.52876 7.93428 4.03973 7.89296 3.553C7.84933 3.03643 8.02842 2.56118 8.41183 2.17776C8.75622 1.83338 9.17866 1.652 9.63784 1.652C10.1774 1.652 10.7192 1.89996 11.1646 2.34766L12.82 3.97086C15.7702 6.86369 18.236 9.28586 18.5 9.55678C18.6286 9.66009 18.7962 9.69912 18.8674 9.66469C18.9133 9.64173 18.9638 9.53612 18.9546 9.31341C18.9408 8.92311 18.8857 8.43868 18.8283 7.92669C18.7135 6.89813 18.5941 5.83283 18.7434 5.13029C19.0694 3.91116 19.7099 3.39459 20.1875 3.17189C20.8441 2.86883 21.4801 2.97444 21.6018 3.03184C22.7956 3.59203 22.5592 4.52876 22.2331 5.82824L22.2263 5.86038L22.1895 6.129C21.9507 7.3045 23.1768 10.5532 24.4028 13.2004L24.4211 13.2371C25.2408 15.0279 26.717 19.622 22.7681 23.5709C20.952 25.3824 18.9867 26 17.2143 26ZM3.33789 12.5782C3.06698 12.5782 2.80984 12.6907 2.59862 12.9019C2.3805 13.12 2.30474 13.3312 2.35066 13.5838C2.40117 13.8616 2.6055 14.1922 2.92463 14.5136C2.92693 14.5159 3.01876 14.6055 3.17718 14.757C8.55418 19.9756 11.8006 23.0773 12.3194 23.4952L12.347 23.5204C13.6143 24.7878 18.3232 27.0377 22.2791 23.0819C25.9226 19.4383 24.552 15.184 23.7921 13.5218L23.776 13.4874C22.9862 11.7838 21.1908 7.65118 21.5099 6.00273L21.5627 5.65834C21.9163 4.25325 21.937 3.95938 21.3377 3.67009C21.161 3.63795 19.8936 3.48413 19.4092 5.291C19.2875 5.86727 19.4046 6.92109 19.5079 7.85093C19.5676 8.37669 19.6227 8.8749 19.6365 9.29045C19.6594 9.94479 19.3495 10.195 19.1612 10.2869C18.7778 10.4728 18.3209 10.3144 18.0362 10.0757L18.0064 10.0481C17.8663 9.89657 14.535 6.62951 12.3309 4.46677L10.6733 2.83898C10.1085 2.27189 9.3807 2.17776 8.89167 2.66679C8.6529 2.90556 8.54499 3.18566 8.57025 3.49561C8.5978 3.81933 8.77229 4.15683 9.06387 4.4484L14.6222 10.1491C14.884 10.4154 14.884 10.8517 14.6176 11.118C14.3628 11.3728 13.9128 11.3774 13.6511 11.1249L6.00802 3.67469C5.44323 3.1099 4.71314 3.01576 4.22641 3.50479C3.98763 3.74356 3.87973 4.02366 3.90498 4.33361C3.93483 4.65733 4.10932 4.99712 4.3986 5.28411L11.8901 12.9662C12.1541 13.2325 12.1518 13.6687 11.8855 13.9351C11.6307 14.1899 11.1807 14.1945 10.919 13.9419L4.681 7.86011C4.1162 7.29073 3.38611 7.19889 2.89938 7.68792C2.30474 8.28255 2.62157 9.01954 3.07157 9.47183L9.17177 15.7718C9.4335 16.0381 9.43121 16.472 9.16489 16.7361C8.90774 16.9932 8.46234 16.9955 8.20061 16.7452L4.38253 13.0764C4.0611 12.7527 3.69146 12.5782 3.33789 12.5782Z" fill="#EDBD82"/>
<path d="M17.8963 9.78177C16.6358 12.3555 16.7989 15.9577 18.6907 18.8483C18.9042 19.2386 19.2692 19.048 19.0833 18.6462C16.7989 13.7583 19.1935 10.2364 19.1935 10.2364L17.8963 9.78177Z" fill="#EDBD82"/>
<path d="M12.9396 0.129809C13.6329 -0.0515672 14.3722 -0.0354959 15.0908 0.132105C15.8049 0.304297 16.5189 0.667049 17.0492 1.25939C17.5681 1.84714 17.8872 2.56117 17.9951 3.30963C18.0962 4.0512 18.002 4.81574 17.6508 5.44941C17.6094 4.73768 17.4855 4.08335 17.2765 3.47952C17.1686 3.17876 17.0423 2.89177 16.8885 2.62086C16.737 2.35224 16.5579 2.08591 16.3674 1.8678C15.9793 1.4201 15.4536 1.07113 14.8635 0.800211C14.2712 0.520112 13.626 0.313481 12.9396 0.129809Z" fill="#B0BEC5"/>
<path d="M13.13 2.30631C13.5134 2.06295 13.9933 2.01244 14.4456 2.09279C14.9024 2.17315 15.3387 2.40045 15.683 2.71498C16.0251 3.03411 16.2685 3.4359 16.42 3.85375C16.4935 4.06268 16.5302 4.28308 16.5647 4.4966C16.5761 4.71701 16.5761 4.93741 16.5417 5.15782C16.3833 4.99022 16.2593 4.82262 16.1422 4.65961C16.0068 4.50578 15.9012 4.34278 15.7795 4.19354C15.5407 3.89737 15.3088 3.62875 15.0586 3.38998C14.8014 3.15809 14.5305 2.95376 14.216 2.77697C13.9037 2.5956 13.5525 2.44407 13.13 2.30631Z" fill="#90A4AE"/>
<path d="M0.00438815 16.8531C0.32811 17.4868 0.665607 18.0745 1.05821 18.5934C1.44851 19.1123 1.89621 19.5531 2.41738 19.8401C2.66993 19.9801 2.97069 20.1018 3.26456 20.1937C3.56073 20.2878 3.86839 20.3521 4.18522 20.3957C4.81889 20.4738 5.4847 20.46 6.18954 20.3521C5.64311 20.8273 4.91302 21.0799 4.16915 21.135C3.41609 21.1855 2.65156 21.0225 1.96738 20.6368C1.27861 20.2442 0.773514 19.6197 0.45668 18.9562C0.139846 18.2881 -0.0300503 17.5695 0.00438815 16.8531Z" fill="#B0BEC5"/>
<path d="M2.17409 16.5845C2.39679 16.9702 2.6172 17.2802 2.85827 17.5511C3.09704 17.822 3.35418 18.0447 3.63428 18.2467C3.91897 18.4419 4.23121 18.6141 4.57101 18.7863C4.7409 18.8735 4.92228 18.9424 5.10136 19.0434C5.28733 19.1238 5.47559 19.2087 5.67304 19.3304C5.46411 19.4085 5.25059 19.4544 5.03248 19.4888C4.81667 19.498 4.59397 19.5095 4.37356 19.4796C3.93275 19.4199 3.49194 19.2661 3.10622 18.9975C2.7274 18.7243 2.41286 18.3455 2.24067 17.9161C2.06618 17.4891 2.01567 17.0116 2.17409 16.5845Z" fill="#90A4AE"/>
<defs>
<radialGradient id="paint0_radial_5_1365" cx="0" cy="0" r="1" gradientUnits="userSpaceOnUse" gradientTransform="translate(8.5488 7.82103) rotate(-45) scale(20.8944)">
<stop offset="0.3533" stop-color="#F9DDBD"/>
<stop offset="0.8723" stop-color="#FFD29C"/>
</radialGradient>
</defs>
</svg>
